<svg version="1.0" xmlns="http://www.w3.org/2000/svg"
 width="512.000000pt" height="512.000000pt" viewBox="0 0 512.000000 512.000000"
 preserveAspectRatio="xMidYMid meet">

<g transform="translate(0.000000,512.000000) scale(0.100000,-0.100000)"
fill="#008080" stroke="none">
<path d="M1414 4882 c-75 -27 -128 -73 -163 -144 -73 -145 -14 -321 128 -388
l52 -24 -3 -45 -3 -46 -100 -5 c-85 -5 -111 -11 -168 -38 -85 -39 -174 -123
-216 -202 l-32 -60 -268 0 c-276 0 -323 -5 -341 -40 -16 -31 -11 -79 10 -100
19 -19 33 -20 295 -20 l275 0 0 -180 0 -180 -275 0 c-262 0 -276 -1 -295 -20
-28 -28 -27 -90 1 -116 19 -18 42 -19 295 -22 l274 -3 0 -174 0 -175 -269 0
c-256 0 -269 -1 -295 -21 -20 -16 -26 -29 -26 -59 0 -30 6 -43 26 -59 26 -20
39 -21 295 -21 l269 0 0 -175 0 -175 -254 0 c-261 0 -308 -6 -326 -40 -16 -31
-11 -79 10 -100 19 -19 33 -20 295 -20 l275 0 0 -180 0 -180 -269 0 c-256 0
-269 -1 -295 -21 -37 -29 -37 -89 0 -118 26 -20 39 -21 295 -21 l269 0 0 -180
0 -180 -275 0 c-262 0 -276 -1 -295 -20 -21 -21 -26 -69 -10 -100 18 -35 65
-40 341 -40 l268 0 32 -60 c42 -80 132 -163 216 -202 57 -26 85 -32 168 -37
l100 -6 3 -45 3 -45 -51 -24 c-59 -28 -114 -86 -142 -149 -17 -37 -20 -60 -16
-126 6 -118 54 -193 151 -243 195 -98 419 39 421 257 1 112 -71 225 -170 266
-32 14 -34 17 -34 64 l0 50 445 0 445 0 0 -50 c0 -47 -2 -50 -34 -64 -54 -22
-121 -91 -147 -149 -61 -141 -4 -301 136 -375 42 -22 63 -27 130 -27 67 0 88
5 131 27 140 73 198 244 130 382 -30 62 -100 129 -152 146 -34 12 -35 13 -32
58 l3 47 438 3 437 2 0 -48 c0 -46 -2 -49 -37 -66 -62 -29 -107 -72 -139 -128
-26 -47 -29 -62 -29 -138 0 -69 5 -93 23 -128 94 -177 327 -215 466 -76 138
138 103 370 -69 460 -55 29 -55 29 -55 77 l0 47 83 0 c149 0 250 43 346 146
32 34 66 82 77 107 l19 46 293 3 294 3 24 28 c29 34 31 66 3 101 l-20 26 -280
0 -279 0 0 180 0 180 275 0 276 0 24 25 c32 31 32 66 1 102 l-24 28 -276 3
-276 3 0 174 0 175 271 0 271 0 29 29 c36 36 37 73 4 106 l-24 25 -276 0 -275
0 0 180 0 180 275 0 276 0 24 25 c33 33 32 70 -4 106 l-29 29 -271 0 -271 0 0
175 0 175 265 0 c280 0 304 4 324 47 17 37 13 62 -14 88 l-24 25 -276 0 -275
0 0 180 0 180 279 0 280 0 20 26 c28 35 26 67 -3 101 l-24 28 -291 3 -290 3
-32 59 c-42 79 -131 163 -216 202 -59 28 -83 33 -173 38 l-105 5 -3 45 -3 45
56 29 c60 31 93 65 128 130 17 33 22 58 22 126 0 76 -3 91 -30 139 -93 167
-319 202 -454 69 -63 -62 -86 -117 -86 -208 0 -121 60 -217 162 -262 42 -19
43 -20 43 -69 l0 -49 -447 2 -448 3 -3 46 -3 45 52 24 c209 98 215 402 9 514
-143 78 -321 20 -397 -128 -36 -69 -38 -178 -4 -248 26 -54 96 -123 147 -144
32 -14 34 -17 34 -64 l0 -50 -435 0 -435 0 0 50 c0 47 2 50 34 64 19 8 55 33
79 55 114 106 122 285 18 404 -71 80 -207 115 -307 79z m167 -165 c67 -45 75
-139 18 -196 -54 -55 -129 -53 -186 4 -29 29 -33 39 -33 85 0 47 4 56 39 91
33 34 45 39 83 39 30 0 56 -8 79 -23z m1050 -16 c35 -35 39 -44 39 -91 0 -46
-4 -56 -33 -85 -57 -57 -132 -59 -186 -4 -83 83 -23 219 97 219 38 0 50 -5 83
-39z m1061 2 c59 -59 46 -160 -25 -203 -38 -24 -75 -25 -122 -6 -91 39 -99
172 -12 227 48 30 119 22 159 -18z m193 -647 c70 -27 147 -106 171 -176 18
-53 19 -102 19 -1320 0 -1364 3 -1296 -52 -1383 -26 -41 -95 -95 -146 -114
-24 -8 -360 -12 -1318 -12 l-1286 -1 -61 31 c-73 36 -125 93 -149 163 -17 48
-18 128 -18 1316 0 1216 1 1267 19 1319 33 95 128 173 235 191 25 4 606 7
1291 6 1203 -1 1247 -2 1295 -20z m-2298 -3447 c94 -87 42 -229 -82 -229 -74
0 -125 54 -125 132 0 49 18 81 64 109 41 26 107 21 143 -12z m1040 11 c43 -26
64 -61 65 -108 2 -142 -187 -185 -244 -56 -23 54 -18 91 20 135 43 52 103 63
159 29z m1040 0 c104 -63 71 -224 -49 -237 -55 -6 -101 15 -128 60 -69 113 64
246 177 177z"/>
<path d="M2355 3828 c-87 -31 -119 -80 -148 -230 -27 -138 -32 -140 -132 -70
-39 27 -84 56 -102 65 -40 21 -132 22 -179 2 -43 -18 -258 -226 -289 -280 -51
-89 -39 -159 48 -282 52 -75 54 -79 41 -105 -16 -30 -19 -31 -132 -52 -46 -9
-91 -20 -101 -25 -34 -18 -90 -90 -100 -128 -15 -51 -14 -351 0 -394 29 -86
89 -130 205 -150 91 -15 101 -22 109 -70 6 -37 3 -46 -40 -110 -37 -53 -49
-80 -53 -118 -9 -100 -2 -113 145 -262 74 -76 150 -145 168 -153 43 -21 128
-20 168 1 18 9 55 32 84 51 l52 34 46 -18 c51 -19 58 -31 70 -109 15 -103 76
-175 167 -195 80 -18 374 -9 413 12 68 37 108 102 121 196 7 56 21 73 76 96
35 15 36 15 108 -31 81 -52 147 -65 216 -43 50 16 288 247 315 305 31 66 25
131 -17 201 -20 32 -45 73 -55 89 -15 26 -17 37 -8 68 11 40 21 45 139 67 104
20 163 76 181 176 17 91 7 340 -15 384 -42 81 -80 104 -213 130 -132 26 -140
44 -67 154 79 117 91 173 55 251 -26 58 -233 274 -295 308 -44 25 -58 28 -106
23 -46 -4 -68 -15 -150 -70 -53 -37 -100 -66 -105 -66 -25 1 -36 23 -54 118
-11 56 -27 118 -37 137 -19 41 -63 77 -113 94 -43 14 -375 13 -416 -1z m378
-163 c8 -8 25 -70 37 -137 13 -68 28 -132 36 -144 13 -22 153 -84 189 -84 12
0 69 34 128 75 60 41 118 75 130 75 27 0 237 -206 237 -233 0 -10 -22 -51 -49
-90 -28 -40 -55 -85 -60 -100 -17 -43 -13 -127 8 -172 34 -74 86 -105 207
-125 118 -20 114 -13 114 -205 0 -190 9 -174 -110 -195 -131 -24 -187 -77
-210 -199 -15 -83 -6 -117 60 -216 22 -33 40 -64 40 -70 0 -19 -224 -235 -244
-235 -11 0 -48 18 -83 41 -104 68 -158 72 -266 18 -78 -40 -109 -86 -130 -190
-10 -46 -23 -86 -30 -91 -22 -14 -333 -10 -345 5 -6 7 -18 45 -26 85 -25 121
-59 161 -173 202 -92 33 -144 26 -234 -34 -50 -33 -78 -46 -93 -42 -25 6 -226
218 -226 238 0 7 16 37 36 67 50 74 74 129 74 173 0 62 -36 142 -84 186 -37
34 -56 43 -122 56 -44 9 -90 22 -104 29 l-25 13 3 165 c2 90 7 168 12 173 5 5
53 17 107 27 126 24 166 51 210 139 18 36 33 79 33 95 0 21 -22 63 -70 135
-38 58 -70 112 -70 120 0 25 212 230 238 230 12 0 72 -34 133 -75 60 -41 118
-75 128 -75 24 0 162 57 179 74 11 11 32 99 56 238 12 65 19 68 191 68 122 0
157 -3 168 -15z"/>
<path d="M2976 2944 c-14 -13 -16 -65 -16 -414 0 -449 -3 -430 75 -430 78 0
75 -19 75 430 0 449 3 430 -75 430 -26 0 -50 -6 -59 -16z"/>
<path d="M2306 2918 c-23 -37 -286 -746 -286 -773 0 -14 8 -29 19 -35 27 -14
94 -13 114 3 9 6 29 48 45 92 l30 80 144 3 144 3 28 -80 c33 -96 48 -111 108
-111 44 0 78 21 78 47 0 18 -270 746 -286 771 -12 18 -23 22 -69 22 -46 0 -57
-4 -69 -22z m71 -476 c-44 -2 -82 -1 -84 2 -3 2 4 30 16 60 12 31 31 82 42
113 l22 57 42 -115 42 -114 -80 -3z"/>
</g>
</svg>
