<svg version="1.0" xmlns="http://www.w3.org/2000/svg"
 width="40" height="40" viewBox="0 0 512.000000 512.000000"
 preserveAspectRatio="xMidYMid meet">

  <g transform="translate(0.000000,512.000000) scale(0.100000,-0.100000)"
  fill="#008080" stroke="none">
  <path d="M2524 5110 c-23 -9 -132 -136 -216 -250 -378 -515 -549 -1099 -507
  -1735 7 -99 12 -191 13 -205 0 -18 -76 -130 -255 -375 -270 -370 -279 -383
  -279 -412 0 -10 40 -120 90 -243 93 -233 116 -270 165 -270 15 0 121 65 270
  166 135 91 249 163 254 160 5 -3 24 -47 42 -97 41 -110 64 -139 114 -139 19 0
  35 -2 35 -5 0 -3 -27 -60 -61 -126 -54 -109 -59 -124 -50 -151 21 -58 13 -57
  421 -57 408 0 400 -1 421 57 9 27 4 42 -50 151 -34 66 -61 123 -61 126 0 3 15
  5 33 5 53 0 71 22 112 130 21 55 42 103 46 106 5 3 119 -69 254 -160 149 -101
  255 -166 270 -166 49 0 72 37 165 270 50 123 90 233 90 243 0 29 -9 42 -279
  412 -179 245 -255 357 -255 375 1 14 6 106 13 205 31 472 -56 919 -258 1325
  -109 218 -276 466 -413 613 -55 58 -76 66 -124 47z m96 -280 c166 -208 334
  -515 413 -756 88 -270 122 -492 121 -794 -1 -272 -29 -477 -105 -783 -31 -125
  -121 -409 -171 -539 l-30 -78 -288 0 -288 0 -30 78 c-123 322 -217 685 -258
  992 -21 157 -24 494 -5 640 48 384 185 753 394 1063 91 135 178 248 189 244 3
  -1 30 -31 58 -67z m-726 -2325 c20 -82 53 -201 72 -264 20 -62 32 -117 27
  -121 -22 -20 -415 -282 -418 -279 -2 2 -28 66 -58 142 l-56 138 196 269 c108
  149 198 269 199 267 1 -1 18 -69 38 -152z m1574 -122 l191 -262 -56 -138 c-30
  -76 -56 -140 -58 -142 -3 -3 -396 259 -418 279 -5 4 9 65 31 136 22 71 54 191
  72 267 18 76 37 134 41 130 4 -4 92 -126 197 -270z m-750 -758 l42 -85 -200 0
  -200 0 42 85 42 85 116 0 116 0 42 -85z"/>
  <path d="M2440 3991 c-75 -24 -114 -45 -162 -89 -89 -80 -140 -196 -140 -317
  0 -155 90 -307 219 -373 243 -124 523 -10 608 246 36 112 17 252 -50 357 -100
  158 -301 232 -475 176z m235 -179 c87 -44 136 -127 136 -227 0 -100 -48 -181
  -136 -228 -31 -17 -58 -22 -115 -22 -57 0 -84 5 -115 22 -88 47 -136 128 -136
  228 0 118 67 209 181 246 41 14 142 3 185 -19z"/>
  <path d="M293 3920 c-83 -17 -150 -70 -187 -150 l-21 -45 0 -1760 0 -1760 28
  -57 c16 -32 45 -71 65 -88 78 -65 -101 -60 2382 -60 2483 0 2304 -5 2382 60
  20 17 49 56 65 88 l28 57 0 1760 0 1760 -21 45 c-26 58 -76 108 -134 134 -44
  21 -60 21 -730 24 -486 2 -696 0 -723 -8 -29 -9 -42 -19 -53 -45 -17 -41 -4
  -86 29 -104 16 -8 219 -12 714 -14 l691 -2 26 -24 26 -24 0 -234 0 -233 -700
  0 -701 0 -24 -26 c-32 -34 -32 -75 -1 -111 l24 -28 701 -3 701 -2 0 -1419 c0
  -781 -3 -1427 -6 -1436 -18 -47 90 -45 -2294 -45 -2384 0 -2276 -2 -2294 45
  -3 9 -6 655 -6 1436 l0 1419 701 2 701 3 24 28 c31 36 31 77 -1 111 l-24 26
  -701 0 -700 0 0 233 0 234 26 24 26 24 691 2 c495 2 698 6 714 14 31 16 45 61
  31 100 -21 60 -10 59 -745 58 -367 -1 -687 -5 -710 -9z"/>
  <path d="M452 3557 c-30 -32 -29 -87 1 -114 26 -25 51 -30 90 -20 56 15 68
  106 19 143 -28 22 -86 17 -110 -9z"/>
  <path d="M795 3555 c-30 -30 -32 -73 -5 -107 57 -74 175 -4 140 82 -23 56 -92
  69 -135 25z"/>
  <path d="M1135 3555 c-44 -43 -26 -112 33 -133 59 -21 122 35 107 95 -16 63
  -94 85 -140 38z"/>
  <path d="M2162 1170 c-29 -27 -34 -65 -30 -219 3 -131 3 -133 31 -157 37 -31
  81 -31 112 1 25 24 25 27 25 188 0 158 -1 164 -23 185 -30 28 -86 29 -115 2z"/>
  <path d="M2842 1167 c-21 -22 -22 -33 -22 -186 0 -159 1 -162 25 -186 31 -32
  75 -32 112 -1 28 24 28 26 31 157 4 154 -1 192 -30 219 -31 28 -88 27 -116 -3z"/>
  <path d="M2499 994 c-23 -25 -24 -30 -24 -186 l0 -160 28 -24 c36 -31 78 -31
  114 0 l28 24 0 160 c0 156 -1 161 -24 186 -34 36 -88 36 -122 0z"/>
  </g>
</svg>
