<svg version="1.0" xmlns="http://www.w3.org/2000/svg"
 width="512.000000pt" height="512.000000pt" viewBox="0 0 512.000000 512.000000"
 preserveAspectRatio="xMidYMid meet">

<g transform="translate(0.000000,512.000000) scale(0.100000,-0.100000)"
fill="#008080" stroke="none">
<path d="M3393 5010 c-23 -14 -35 -31 -43 -62 -18 -67 -33 -91 -63 -101 -23
-7 -35 -4 -70 19 -29 20 -55 29 -84 29 -40 0 -48 -5 -120 -78 -74 -73 -78 -80
-78 -121 0 -31 7 -54 24 -77 41 -56 20 -129 -37 -129 -35 0 -88 -28 -107 -56
l-15 -24 -1088 -2 -1087 -3 -57 -28 c-74 -36 -159 -128 -190 -204 l-23 -58 -3
-1255 c-2 -844 1 -1277 8 -1323 18 -115 76 -207 168 -265 98 -62 93 -62 783
-62 l627 0 -5 -68 c-11 -167 -58 -398 -103 -499 l-19 -43 -147 0 c-83 0 -164
-5 -186 -12 -51 -15 -121 -77 -147 -131 -46 -96 -16 -238 65 -305 79 -65 22
-62 1164 -62 903 0 1042 2 1081 15 103 35 169 130 169 242 0 35 -6 78 -14 97
-21 51 -76 107 -131 132 -45 22 -64 24 -203 24 l-153 0 -25 57 c-49 109 -91
308 -107 505 l-4 47 651 3 c647 3 651 3 706 25 120 49 209 165 230 299 7 47
10 480 8 1359 l-3 1290 -21 46 c-30 65 -86 123 -147 153 -48 25 -60 26 -204
26 -150 0 -153 0 -168 24 -19 28 -72 56 -107 56 -28 0 -52 23 -63 58 -5 17 1
35 21 65 20 29 29 55 29 84 0 39 -5 48 -65 108 -103 105 -137 114 -219 59 -28
-18 -46 -24 -63 -19 -35 11 -58 35 -58 63 0 38 -30 92 -61 107 -45 24 -205 20
-246 -5z m172 -149 c10 -46 60 -108 107 -133 55 -28 137 -30 192 -3 40 19 59
15 80 -17 7 -12 4 -28 -10 -59 -25 -57 -23 -132 5 -187 24 -47 86 -97 132
-107 26 -6 29 -11 29 -44 0 -36 -2 -39 -41 -50 -95 -28 -164 -151 -139 -248 6
-26 18 -55 25 -67 13 -18 12 -23 -11 -48 l-27 -27 -41 21 c-113 58 -275 -13
-301 -133 -6 -26 -11 -29 -45 -29 -34 0 -39 3 -45 29 -26 119 -188 191 -301
133 l-41 -21 -26 26 -26 26 21 41 c57 113 -7 264 -126 297 -33 9 -36 13 -36
48 0 36 2 39 41 50 57 17 114 78 134 142 17 59 13 104 -16 160 l-18 36 26 25
26 26 41 -21 c114 -60 271 11 301 136 6 24 12 27 45 27 34 0 39 -3 45 -29z
m-765 -618 c0 -48 34 -91 82 -103 94 -25 121 -60 91 -117 -43 -78 -45 -85 -38
-120 9 -51 127 -169 178 -178 35 -7 42 -5 120 38 57 30 92 3 117 -91 17 -65
52 -82 168 -82 65 0 102 5 123 16 30 15 59 65 59 103 0 31 32 62 65 63 17 1
47 -11 70 -26 65 -45 102 -34 194 58 71 71 76 79 76 119 0 29 -9 55 -29 84
-23 35 -26 47 -19 70 10 30 34 45 101 63 48 12 82 55 82 103 l0 27 139 0 c127
0 141 -2 171 -22 18 -13 43 -36 54 -51 21 -28 21 -30 24 -1133 l2 -1104 -2070
0 -2071 0 3 1068 3 1067 31 55 c23 41 45 63 84 88 l54 32 1068 0 1068 0 0 -27z
m1828 -2565 c-6 -195 -32 -252 -143 -304 l-50 -24 -1875 0 -1875 0 -50 24
c-111 52 -137 109 -143 304 l-4 142 2072 0 2072 0 -4 -142z m-1594 -484 c3 -9
6 -39 6 -69 0 -103 59 -386 105 -507 7 -17 -25 -18 -584 -18 -325 0 -591 4
-591 8 0 5 9 35 20 68 27 77 67 279 75 374 3 41 8 94 11 118 l5 42 474 0 c422
0 474 -2 479 -16z m602 -768 c28 -28 34 -41 34 -78 0 -50 -18 -82 -60 -103
-44 -23 -2056 -23 -2100 0 -42 21 -60 53 -60 103 0 37 6 50 34 78 l34 34 1042
0 1042 0 34 -34z"/>
<path d="M3415 4677 c-109 -37 -186 -102 -238 -202 -30 -56 -32 -67 -32 -165
0 -95 3 -110 28 -163 37 -74 110 -147 184 -184 53 -25 68 -28 163 -28 94 0
111 3 161 27 76 38 146 109 183 188 28 58 31 75 31 160 0 83 -4 103 -28 156
-36 78 -113 155 -192 190 -71 33 -194 42 -260 21z m231 -163 c30 -18 60 -48
79 -78 27 -44 30 -58 30 -126 0 -68 -3 -82 -30 -126 -19 -30 -49 -60 -79 -79
-44 -27 -58 -30 -126 -30 -68 0 -82 3 -126 30 -159 99 -150 335 18 419 74 38
163 34 234 -10z"/>
<path d="M1653 4050 c-41 -13 -81 -61 -88 -108 -11 -62 -27 -93 -59 -113 -48
-29 -94 -24 -156 16 -91 58 -123 49 -243 -72 -105 -107 -116 -154 -53 -236 34
-45 41 -85 23 -129 -19 -46 -49 -65 -118 -78 -42 -8 -61 -18 -86 -45 l-33 -35
0 -125 c0 -171 20 -208 123 -221 58 -8 101 -41 117 -90 14 -40 4 -76 -33 -126
-59 -80 -45 -128 73 -242 87 -84 91 -86 137 -86 39 0 60 7 103 35 30 19 65 35
78 35 56 0 122 -60 122 -112 0 -46 26 -96 62 -118 28 -17 50 -20 153 -20 101
0 125 3 152 20 37 22 63 67 63 107 0 68 77 132 144 119 17 -4 49 -20 70 -36
32 -24 50 -30 89 -30 48 0 51 2 134 82 127 124 138 159 78 247 -48 70 -49 129
-2 175 25 26 44 34 86 40 77 10 116 51 126 130 10 74 1 193 -15 229 -16 34
-68 67 -105 67 -109 0 -162 116 -94 208 64 87 49 141 -71 256 -104 99 -156
109 -236 45 -42 -33 -96 -39 -143 -14 -30 15 -61 69 -61 105 0 34 -29 87 -58
107 -21 14 -51 18 -137 20 -60 1 -124 -2 -142 -7z m202 -167 c32 -172 225
-265 381 -183 l58 31 48 -48 48 -48 -30 -59 c-81 -159 11 -349 183 -380 l38
-7 -3 -71 -3 -71 -48 -12 c-108 -27 -187 -119 -195 -225 -6 -78 3 -120 34
-165 l25 -38 -52 -53 c-46 -47 -55 -52 -68 -40 -40 35 -87 50 -156 50 -59 0
-79 -4 -124 -29 -69 -38 -108 -86 -128 -157 l-16 -58 -74 0 c-69 0 -73 1 -73
23 0 40 -47 122 -91 160 -43 37 -118 67 -169 67 -39 0 -121 -27 -150 -50 l-25
-19 -52 51 -52 51 32 55 c73 129 18 295 -118 358 -27 13 -60 24 -72 24 -22 0
-23 4 -23 74 l0 74 43 10 c138 35 228 174 198 307 -7 30 -24 71 -37 91 l-26
37 51 51 c44 44 53 49 69 39 74 -53 166 -67 251 -38 87 29 171 135 171 217 0
16 9 18 74 18 l74 0 7 -37z"/>
<path d="M1628 3581 c-76 -25 -144 -70 -206 -135 -184 -195 -173 -504 26 -687
240 -220 618 -147 764 147 38 77 41 91 46 183 4 82 1 111 -17 170 -42 137
-155 260 -288 312 -82 32 -244 37 -325 10z m277 -142 c68 -25 151 -103 186
-174 20 -42 24 -65 24 -145 0 -82 -4 -103 -26 -150 -33 -69 -97 -133 -169
-168 -47 -23 -68 -27 -140 -27 -71 0 -94 4 -142 27 -76 35 -138 95 -174 165
-26 51 -29 68 -29 148 0 77 4 98 26 146 42 89 126 161 219 190 52 16 168 10
225 -12z"/>
<path d="M2965 3165 c-30 -29 -32 -68 -5 -95 20 -20 33 -20 710 -20 677 0 690
0 710 20 29 29 26 74 -6 99 -26 21 -34 21 -706 21 l-679 0 -24 -25z"/>
<path d="M2960 2730 c-27 -27 -25 -66 5 -95 l24 -25 679 0 c672 0 680 0 706
21 32 25 35 70 6 99 -20 20 -33 20 -710 20 -677 0 -690 0 -710 -20z"/>
<path d="M2965 2295 c-30 -29 -32 -64 -5 -93 21 -22 23 -22 380 -22 347 0 361
1 380 20 27 27 25 66 -5 95 l-24 25 -351 0 -351 0 -24 -25z"/>
<path d="M2340 1630 c-37 -37 -21 -91 31 -109 18 -6 100 -11 189 -11 89 0 171
5 189 11 52 18 68 72 31 109 -19 19 -33 20 -220 20 -187 0 -201 -1 -220 -20z"/>
</g>
</svg>
